<svg xmlns="http://www.w3.org/2000/svg" viewBox="0 0 220 60" width="220" height="60">
  <defs>
    <linearGradient id="hoodGrad" x1="0" y1="0" x2="0" y2="1">
      <stop offset="0%" stop-color="#1e293b"/>
      <stop offset="100%" stop-color="#0f172a"/>
    </linearGradient>
    <linearGradient id="codeGlow" x1="0" y1="0" x2="1" y2="1">
      <stop offset="0%" stop-color="#3b82f6"/>
      <stop offset="100%" stop-color="#60a5fa"/>
    </linearGradient>
  </defs>
  <!-- CloudyBro Icon -->
  <g transform="translate(4,3) scale(0.85)">
    <circle cx="20" cy="20" r="19" fill="#0a0a0a" stroke="#1e293b" stroke-width="0.5"/>
    <path d="M20 4 C13 4 9 10 9 16 L9 18 C9 18 12 19 20 19 C28 19 31 18 31 18 L31 16 C31 10 27 4 20 4Z"
          fill="url(#hoodGrad)" stroke="#e2e8f0" stroke-width="0.8" stroke-linejoin="round"/>
    <ellipse cx="20" cy="17" rx="8" ry="3" fill="none" stroke="#e2e8f0" stroke-width="0.7"/>
    <rect x="11" y="20" width="18" height="11" rx="1.5" fill="#0f172a" stroke="#e2e8f0" stroke-width="0.7"/>
    <text x="20" y="28" font-family="monospace" font-size="7" fill="url(#codeGlow)" text-anchor="middle" font-weight="bold">&lt;/&gt;</text>
    <line x1="8" y1="32" x2="32" y2="32" stroke="#e2e8f0" stroke-width="0.8" stroke-linecap="round"/>
    <path d="M11 22 L7 28" fill="none" stroke="#e2e8f0" stroke-width="0.6" stroke-linecap="round"/>
    <path d="M29 22 L33 28" fill="none" stroke="#e2e8f0" stroke-width="0.6" stroke-linecap="round"/>
  </g>
  <!-- "CLOUDYBRO" text -->
  <text x="44" y="22" font-family="system-ui, -apple-system, 'Segoe UI', sans-serif" font-weight="800" font-size="17" fill="#f8fafc" letter-spacing="1.5">CLOUDY</text>
  <text x="128" y="22" font-family="system-ui, -apple-system, 'Segoe UI', sans-serif" font-weight="800" font-size="17" fill="#3b82f6" letter-spacing="1.5">BRO</text>
  <!-- Tagline -->
  <text x="44" y="38" font-family="system-ui, -apple-system, 'Segoe UI', sans-serif" font-weight="500" font-size="9" fill="#64748b" letter-spacing="0.2">Your 24/7 DevOps Guardian</text>
</svg>
